<svg width="24" height="24" viewBox="0 0 24 24" fill="none" xmlns="http://www.w3.org/2000/svg">
<path d="M11.8346 0.224365C15.0045 0.224365 15.4 0.236032 16.6436 0.294365C17.8861 0.352699 18.732 0.547532 19.4763 0.836865C20.2463 1.1332 20.895 1.53453 21.5436 2.18203C22.1369 2.76524 22.5959 3.47072 22.8888 4.24937C23.177 4.99253 23.373 5.83953 23.4313 7.08203C23.4861 8.3257 23.5013 8.7212 23.5013 11.891C23.5013 15.0609 23.4896 15.4564 23.4313 16.7C23.373 17.9425 23.177 18.7884 22.8888 19.5327C22.5968 20.3118 22.1376 21.0174 21.5436 21.6C20.9603 22.1931 20.2548 22.6521 19.4763 22.9452C18.7331 23.2334 17.8861 23.4294 16.6436 23.4877C15.4 23.5425 15.0045 23.5577 11.8346 23.5577C8.6648 23.5577 8.2693 23.546 7.02564 23.4877C5.78314 23.4294 4.9373 23.2334 4.19297 22.9452C3.41402 22.6529 2.70842 22.1938 2.12564 21.6C1.53228 21.0169 1.07322 20.3114 0.780469 19.5327C0.491136 18.7895 0.296302 17.9425 0.237969 16.7C0.183135 15.4564 0.167969 15.0609 0.167969 11.891C0.167969 8.7212 0.179635 8.3257 0.237969 7.08203C0.296302 5.83837 0.491136 4.9937 0.780469 4.24937C1.07241 3.47024 1.53157 2.76457 2.12564 2.18203C2.70859 1.58847 3.41414 1.12938 4.19297 0.836865C4.9373 0.547532 5.78197 0.352699 7.02564 0.294365C8.2693 0.239532 8.6648 0.224365 11.8346 0.224365ZM11.8346 6.0577C10.2875 6.0577 8.80381 6.67228 7.70985 7.76624C6.61588 8.8602 6.0013 10.3439 6.0013 11.891C6.0013 13.4381 6.61588 14.9219 7.70985 16.0158C8.80381 17.1098 10.2875 17.7244 11.8346 17.7244C13.3817 17.7244 14.8655 17.1098 15.9594 16.0158C17.0534 14.9219 17.668 13.4381 17.668 11.891C17.668 10.3439 17.0534 8.8602 15.9594 7.76624C14.8655 6.67228 13.3817 6.0577 11.8346 6.0577ZM19.418 5.76603C19.418 5.37926 19.2643 5.00833 18.9908 4.73483C18.7173 4.46134 18.3464 4.3077 17.9596 4.3077C17.5729 4.3077 17.2019 4.46134 16.9284 4.73483C16.6549 5.00833 16.5013 5.37926 16.5013 5.76603C16.5013 6.15281 16.6549 6.52374 16.9284 6.79723C17.2019 7.07072 17.5729 7.22437 17.9596 7.22437C18.3464 7.22437 18.7173 7.07072 18.9908 6.79723C19.2643 6.52374 19.418 6.15281 19.418 5.76603ZM11.8346 8.39103C12.7629 8.39103 13.6531 8.75978 14.3095 9.41616C14.9659 10.0725 15.3346 10.9628 15.3346 11.891C15.3346 12.8193 14.9659 13.7095 14.3095 14.3659C13.6531 15.0223 12.7629 15.391 11.8346 15.391C10.9064 15.391 10.0161 15.0223 9.35976 14.3659C8.70338 13.7095 8.33464 12.8193 8.33464 11.891C8.33464 10.9628 8.70338 10.0725 9.35976 9.41616C10.0161 8.75978 10.9064 8.39103 11.8346 8.39103Z" fill="#486A93"/>
</svg>
