<svg width="25" height="20" viewBox="0 0 25 20" fill="none" xmlns="http://www.w3.org/2000/svg">
<path d="M24.6903 2.48969C23.7996 2.88367 22.8551 3.14241 21.888 3.25736C22.9074 2.6477 23.6703 1.68821 24.0347 0.557694C23.078 1.12703 22.0292 1.52603 20.936 1.74186C20.2017 0.956203 19.2284 0.435151 18.1674 0.25971C17.1065 0.0842683 16.0173 0.264267 15.0691 0.771723C14.121 1.27918 13.3671 2.08566 12.9246 3.06579C12.4821 4.04591 12.3759 5.14477 12.6223 6.19153C10.6823 6.09429 8.78438 5.59014 7.05182 4.7118C5.31927 3.83347 3.79081 2.60058 2.56566 1.09319C2.13199 1.83805 1.9041 2.68479 1.90532 3.54669C1.90532 5.23836 2.76632 6.73286 4.07532 7.60786C3.30067 7.58347 2.54306 7.37427 1.86566 6.9977V7.05836C1.86589 8.18501 2.25575 9.27691 2.96915 10.1489C3.68254 11.0209 4.67555 11.6194 5.77982 11.8429C5.06071 12.0377 4.30668 12.0665 3.57482 11.9269C3.88617 12.8966 4.493 13.7448 5.31035 14.3525C6.1277 14.9602 7.11464 15.2971 8.13299 15.316C7.12088 16.1109 5.96203 16.6985 4.72268 17.0452C3.48334 17.3919 2.1878 17.491 0.910156 17.3367C3.14047 18.771 5.73677 19.5325 8.38849 19.53C17.3637 19.53 22.2718 12.0949 22.2718 5.6467C22.2718 5.4367 22.266 5.22436 22.2567 5.01669C23.212 4.32622 24.0365 3.47088 24.6915 2.49086L24.6903 2.48969Z" fill="#486A93"/>
</svg>
